<svg xmlns="http://www.w3.org/2000/svg" viewBox="0 0 512 512" role="img" aria-labelledby="title desc">
	<title id="title">Ignite Element Logo</title>
	<desc id="desc">Rounded square with cyan outline, central glowing core, orbiting paths and golden nodes.</desc>
	<defs>
		<radialGradient id="core" cx="50%" cy="50%" r="55%">
			<stop offset="0%" stop-color="#fcd34d" />
			<stop offset="55%" stop-color="#f59e0b" />
			<stop offset="100%" stop-color="#0f182e" stop-opacity="0.15" />
		</radialGradient>
		<filter id="glow" x="-30%" y="-30%" width="160%" height="160%">
			<feGaussianBlur stdDeviation="3" result="blur" />
			<feMerge>
				<feMergeNode in="blur" />
				<feMergeNode in="SourceGraphic" />
			</feMerge>
		</filter>
	</defs>

	<rect width="512" height="512" rx="92" fill="#ffffff" />
	<rect x="30" y="30" width="452" height="452" rx="76" fill="none" stroke="#006d93" stroke-width="8" />

	<g fill="#b45309">
		<!-- Octagon of accent nodes -->
		<circle cx="256" cy="70" r="5" />
		<circle cx="387" cy="125" r="5" />
		<circle cx="442" cy="256" r="5" />
		<circle cx="387" cy="387" r="5" />
		<circle cx="256" cy="442" r="5" />
		<circle cx="125" cy="387" r="5" />
		<circle cx="70" cy="256" r="5" />
		<circle cx="125" cy="125" r="5" />
	</g>

	<g stroke="#006d93" stroke-width="4" fill="none" stroke-linecap="round" filter="url(#glow)">
		<ellipse cx="256" cy="256" rx="115" ry="72" />
		<ellipse cx="256" cy="256" rx="115" ry="72" transform="rotate(60 256 256)" />
		<ellipse cx="256" cy="256" rx="115" ry="72" transform="rotate(-60 256 256)" />
	</g>

	<circle cx="256" cy="256" r="26" fill="url(#core)" filter="url(#glow)" />
</svg>
